<svg xmlns="http://www.w3.org/2000/svg" width="23.361" height="18.387" viewBox="0 0 23.361 18.387">
  <defs>
    <style>.a{fill:#fff;}</style>
  </defs>
  <g transform="translate(0 0)">
    <g transform="translate(0 0)">
      <path class="a" d="M22.584,47.665a2.512,2.512,0,0,0-1.843-.777H17.054v-.044a1.994,1.994,0,0,0-.6-1.443,2.032,2.032,0,0,0-1.443-.6H8.35a2.047,2.047,0,0,0-2.065,2.043v.044H2.62a2.512,2.512,0,0,0-1.843.777A2.64,2.64,0,0,0,0,49.508V60.566A2.512,2.512,0,0,0,.777,62.41a2.64,2.64,0,0,0,1.843.777h18.12a2.512,2.512,0,0,0,1.843-.777,2.64,2.64,0,0,0,.777-1.843V49.508A2.512,2.512,0,0,0,22.584,47.665Zm-.378,12.9h-.022a1.441,1.441,0,0,1-1.443,1.443H2.62a1.441,1.441,0,0,1-1.443-1.443V49.508A1.441,1.441,0,0,1,2.62,48.064H6.906a.6.6,0,0,0,.6-.6v-.644a.836.836,0,0,1,.866-.866h6.64a.836.836,0,0,1,.866.866v.644a.6.6,0,0,0,.6.6h4.286a1.441,1.441,0,0,1,1.443,1.443Z" transform="translate(0 -44.8)"/>
      <path class="a" d="M117.463,130.8a5.459,5.459,0,1,0,3.864,1.6A5.472,5.472,0,0,0,117.463,130.8Zm3.02,8.505a4.289,4.289,0,0,1-6.04,0,4.245,4.245,0,0,1-1.244-3.02,4.34,4.34,0,0,1,1.244-3.02,4.245,4.245,0,0,1,3.02-1.244,4.34,4.34,0,0,1,3.02,1.244,4.245,4.245,0,0,1,1.244,3.02A4.155,4.155,0,0,1,120.483,139.305Z" transform="translate(-105.782 -126.026)"/>
      <circle class="a" cx="1.088" cy="1.088" r="1.088" transform="translate(18.498 4.752)"/>
    </g>
  </g>
</svg>