<svg xmlns="http://www.w3.org/2000/svg" width="29.002" height="21.751" viewBox="0 0 29.002 21.751">
  <defs>
    <style>.a{fill:#283148;}</style>
  </defs>
  <g transform="translate(0 -64)">
    <g transform="translate(0 64)">
      <g transform="translate(0 0)">
        <path class="a" d="M7.127,65.765c3.98,3.371,10.965,9.3,13.018,11.151a1.213,1.213,0,0,0,1.754,0c2.055-1.851,9.039-7.782,13.019-11.153A.6.6,0,0,0,35,64.931a2.4,2.4,0,0,0-1.9-.931H8.939a2.4,2.4,0,0,0-1.9.931A.6.6,0,0,0,7.127,65.765Z" transform="translate(-6.522 -64)"/>
        <path class="a" d="M28.651,126.468a.6.6,0,0,0-.644.087c-4.414,3.742-10.048,8.539-11.82,10.136a2.447,2.447,0,0,1-3.373,0c-1.889-1.7-8.216-7.081-11.819-10.135a.6.6,0,0,0-.995.461v15.195a2.419,2.419,0,0,0,2.417,2.417H26.585A2.419,2.419,0,0,0,29,142.211V127.016A.6.6,0,0,0,28.651,126.468Z" transform="translate(0 -122.876)"/>
      </g>
    </g>
  </g>
</svg>