<svg xmlns="http://www.w3.org/2000/svg" width="26.943" height="27" viewBox="0 0 26.943 27">
  <defs>
    <style>.a{fill:#283148;}</style>
  </defs>
  <g transform="translate(-0.539)">
    <g transform="translate(0.539 0)">
      <path class="a" d="M26.776,19.815l-3.768-3.768a2.506,2.506,0,0,0-4.172.942A2.564,2.564,0,0,1,15.876,18.6c-2.691-.673-6.325-4.172-7-7a2.439,2.439,0,0,1,1.615-2.961,2.506,2.506,0,0,0,.942-4.172L7.667.706a2.688,2.688,0,0,0-3.633,0L1.477,3.263c-2.557,2.691.269,9.824,6.594,16.148S21.528,28.7,24.219,26.005l2.557-2.557A2.688,2.688,0,0,0,26.776,19.815Z" transform="translate(-0.539 0)"/>
    </g>
  </g>
</svg>