<svg id="Layer_1" data-name="Layer 1" xmlns="http://www.w3.org/2000/svg" viewBox="0 0 200 200"><defs><style>.cls-1{fill:#0a85c7;}.cls-2{fill:#1b253a;}.cls-3{fill:#fff;}</style></defs><title>200</title><path class="cls-1" d="M140.1,123.83a6,6,0,0,0,2.24-5v-2.5a5.86,5.86,0,0,0-6.17-6.2H130v24.27h5v-9.37h.4l2.5,9.37h5.2ZM135,115h1a1.17,1.17,0,0,1,1.33,1.33v2.62a1.17,1.17,0,0,1-1.33,1.33h-1Z"/><path class="cls-2" d="M62.47,110.19a5.31,5.31,0,0,0-5.58,5.59v13.05a5.59,5.59,0,1,0,11.17,0v-3.36h-3.5v3.36a2.06,2.06,0,1,1-4.11,0V115.78a2.06,2.06,0,1,1,4.11,0v2.76h3.5v-2.76A5.32,5.32,0,0,0,62.47,110.19Z"/><polygon class="cls-2" points="74.89 110.53 71.32 110.53 71.32 134.08 81.25 134.08 81.25 130.72 74.89 130.72 74.89 110.53"/><rect class="cls-2" x="84" y="110.53" width="3.57" height="23.55"/><polygon class="cls-2" points="99.95 126.34 95.41 110.53 91.47 110.53 91.47 134.08 94.97 134.08 94.97 119.01 99.68 134.08 103.45 134.08 103.45 110.53 99.95 110.53 99.95 126.34"/><rect class="cls-2" x="107.35" y="110.53" width="3.57" height="23.55"/><path class="cls-2" d="M125.69,118.54v-2.76a5.59,5.59,0,1,0-11.17,0v13.05a5.59,5.59,0,1,0,11.17,0v-3.36h-3.5v3.36a2.06,2.06,0,1,1-4.11,0V115.78a2.06,2.06,0,1,1,4.11,0v2.76Z"/><polygon class="cls-3" points="109.78 96.03 88.52 96.03 94.46 74.07 115.72 74.07 109.78 96.03"/><path class="cls-1" d="M110.51,97H87.26l6.47-23.88H117ZM89.78,95.06H109l5.42-20H95.2Z"/><polygon class="cls-3" points="105.54 90.2 84.28 90.2 90.22 68.25 111.48 68.25 105.54 90.2"/><path class="cls-1" d="M106.27,91.16H83l6.47-23.88h23.25ZM85.54,89.24H104.8l5.42-20H91Z"/><polygon class="cls-1" points="106.84 73.21 106.31 75.14 91.64 75.39 92.16 73.45 106.84 73.21"/><polygon class="cls-1" points="105.5 78.13 104.98 80.07 90.3 80.31 90.82 78.38 105.5 78.13"/><polygon class="cls-1" points="104.17 83.06 103.65 84.99 88.96 85.24 89.48 83.3 104.17 83.06"/></svg>