<svg id="Layer_1" data-name="Layer 1" xmlns="http://www.w3.org/2000/svg" viewBox="0 0 176.1 62.3"><defs><style>.cls-1{fill:#50c7f2;}.cls-2{fill:#1b253a;}.cls-3{fill:#fff;}</style></defs><title>Logo</title><path class="cls-1" d="M158.94,32.92a7,7,0,0,0,2.6-5.75V24.28a6.77,6.77,0,0,0-7.14-7.17h-7.14V45.2h5.8V34.35h.46l2.89,10.85h6Zm-5.88-10.24h1.15a1.35,1.35,0,0,1,1.54,1.53v3a1.35,1.35,0,0,1-1.54,1.53h-1.15Z"/><path class="cls-2" d="M69.08,17.13a6.16,6.16,0,0,0-6.47,6.47V38.71a6.47,6.47,0,0,0,12.93,0v-3.9H71.49v3.9a2.38,2.38,0,1,1-4.75,0V23.6a2.38,2.38,0,1,1,4.75,0v3.19h4.05V23.6A6.15,6.15,0,0,0,69.08,17.13Z"/><polygon class="cls-2" points="83.45 17.52 79.32 17.52 79.32 44.78 90.81 44.78 90.81 40.89 83.45 40.89 83.45 17.52"/><rect class="cls-2" x="94" y="17.52" width="4.13" height="27.27"/><polygon class="cls-2" points="112.47 35.83 107.21 17.52 102.65 17.52 102.65 44.78 106.7 44.78 106.7 27.34 112.15 44.78 116.52 44.78 116.52 17.52 112.47 17.52 112.47 35.83"/><rect class="cls-2" x="121.03" y="17.52" width="4.13" height="27.27"/><path class="cls-2" d="M142.26,26.79V23.6a6.47,6.47,0,1,0-12.93,0V38.71a6.47,6.47,0,0,0,12.93,0v-3.9h-4v3.9a2.38,2.38,0,1,1-4.75,0V23.6a2.38,2.38,0,1,1,4.75,0v3.19Z"/><polygon class="cls-3" points="44.64 48.23 20.03 48.23 26.91 22.81 51.52 22.81 44.64 48.23"/><path class="cls-1" d="M45.49,49.34H18.57L26.06,21.7H53Zm-24-2.23H43.78l6.28-23.18H27.76Z"/><polygon class="cls-3" points="39.73 41.48 15.12 41.48 22 16.06 46.61 16.06 39.73 41.48"/><path class="cls-1" d="M40.58,42.6H13.66L21.15,15H48.06Zm-24-2.23H38.87l6.28-23.19H22.85Z"/><polygon class="cls-1" points="41.23 21.81 40.63 24.05 23.64 24.33 24.24 22.09 41.23 21.81"/><polygon class="cls-1" points="39.69 27.51 39.08 29.75 22.09 30.04 22.7 27.8 39.69 27.51"/><polygon class="cls-1" points="38.15 33.21 37.54 35.45 20.54 35.74 21.15 33.5 38.15 33.21"/></svg>